<svg xmlns="http://www.w3.org/2000/svg" width="1200" height="630" viewBox="0 0 1200 630"><rect width="1200" height="630" fill="#0c1018"/><rect x="150" y="230" width="260" height="200" rx="10" fill="none" stroke="#f59e0b" stroke-width="2" opacity="0.6"/><circle cx="200" cy="270" r="10" fill="#f59e0b"/><line x1="230" y1="270" x2="370" y2="270" stroke="#334155" stroke-width="6"/><circle cx="200" cy="320" r="10" fill="#14b8a6"/><line x1="230" y1="320" x2="340" y2="320" stroke="#334155" stroke-width="6"/><circle cx="200" cy="370" r="10" fill="none" stroke="#64748b" stroke-width="2"/><line x1="230" y1="370" x2="360" y2="370" stroke="#334155" stroke-width="6"/><path d="M470 330 h100" stroke="#334155" stroke-width="2"/><path d="M500 300 l30 30 l-30 30" fill="none" stroke="#14b8a6" stroke-width="3"/><rect x="640" y="230" width="260" height="200" rx="10" fill="none" stroke="#14b8a6" stroke-width="2" opacity="0.6"/><rect x="670" y="270" width="200" height="16" rx="4" fill="#14b8a6" opacity="0.5"/><rect x="670" y="310" width="160" height="16" rx="4" fill="#334155"/><rect x="670" y="350" width="180" height="16" rx="4" fill="#334155"/><text x="64" y="100" font-family="Consolas,monospace" font-size="18" fill="#f59e0b">20  War Story</text><text x="64" y="560" font-family="Segoe UI,sans-serif" font-size="34" font-weight="700" fill="#f1f5f9">The Facility Guy Shipped a Feature</text></svg>
