<svg xmlns="http://www.w3.org/2000/svg" width="1200" height="630" viewBox="0 0 1200 630"><rect width="1200" height="630" fill="#0a1218"/><path d="M120 460 Q300 440 460 460 T820 450 T1080 460" fill="none" stroke="#334155" stroke-width="2" opacity="0.6"/><path d="M250 460 C230 400 260 350 320 340 C340 300 400 290 430 320 C470 300 520 320 520 360 C560 360 570 400 540 430 L540 460 Z" fill="none" stroke="#f59e0b" stroke-width="3" opacity="0.85"/><line x1="330" y1="340" x2="310" y2="270" stroke="#f59e0b" stroke-width="3"/><line x1="360" y1="330" x2="350" y2="260" stroke="#f59e0b" stroke-width="3"/><circle cx="470" cy="300" r="26" fill="none" stroke="#14b8a6" stroke-width="3"/><path d="M470 326 v50 M470 350 l-30 40 M470 350 l30 40 M470 340 l-40 10 M470 340 l40 -6" stroke="#14b8a6" stroke-width="3" fill="none"/><text x="64" y="100" font-family="Consolas,monospace" font-size="18" fill="#f59e0b">21  Analogy</text><text x="64" y="560" font-family="Segoe UI,sans-serif" font-size="34" font-weight="700" fill="#f1f5f9">AI Coding Is Like Horseback Riding</text></svg>
